PathFileType	4	(X/Y/Z)	D:\TRACE\spot_10-12-23\spot_arm_motion_2_2-v60.trc
DataRate	CameraRate	NumFrames	NumMarkers	Units	OrigDataRate	OrigDataStartFrame	OrigNumFrames
100.00	100.00	      28	9	mm	100.00	5251	      7000
Frame#	Time	front left toe			Front right toe			aft left toe			aft right toe			Arm			FL body			FR body			AL Body			AR Body			
		X1	Y1	Z1	X2	Y2	Z2	X3	Y3	Z3	X4	Y4	Z4	X5	Y5	Z5	X6	Y6	Z6	X7	Y7	Z7	X8	Y8	Z8	X9	Y9	Z9	

5251	52.500	-170.42519	32.58884	-74.84476	308.19928	21.34366	26.15219	-285.16122	-8.07022	504.82266	183.71443	-24.81154	604.75732	29.28146	815.17633	-723.16040	51.47207	567.19220	-93.45747	200.06467	572.11426	-63.90297	-122.91446	495.10403	770.26398	25.03797	492.47162	801.12244	
5252	52.510	-171.56757	32.50816	-75.20629	306.71317	21.42142	25.87677	-286.21661	-7.22315	504.61273	182.99991	-24.09566	604.37231	28.54643	813.31262	-723.59839	50.52218	567.25549	-93.72462	200.49127	571.74506	-64.07072	-123.58984	495.60245	770.28094	23.30021	493.54715	801.07159	
5253	52.520	-172.63397	32.45962	-75.55966	305.79758	21.19310	25.54179	-287.30786	-6.43285	504.51843	181.71745	-23.36576	604.19470	27.62004	811.45203	-724.04468	49.59938	567.30359	-94.04292	198.49985	572.08643	-64.48098	-124.23293	496.36606	770.26306	23.68147	493.90930	801.17798	
5254	52.530	-173.65082	32.58583	-76.02007	304.50323	21.12009	25.39398	-288.21289	-5.77109	504.47223	180.28908	-22.43781	604.37799	26.87680	809.57935	-724.34698	48.59506	567.18903	-94.06298	197.66614	572.03088	-64.72632	-125.06306	497.11847	770.28540	21.52590	495.01114	800.68414	
5255	52.540	-173.70964	30.65276	-75.45397	303.53296	21.10783	25.18934	-289.47241	-4.97513	504.19562	179.34567	-21.47079	604.09113	26.20951	807.75378	-724.70227	47.79236	566.88080	-94.18130	196.66837	572.13354	-64.82330	-126.47663	497.97751	769.36237	21.12716	496.00757	800.59296	
5256	52.550	-174.66632	30.51315	-75.65382	302.34320	20.92359	24.72618	-290.62177	-4.07642	504.03140	178.33594	-20.50562	603.79303	25.96041	805.81244	-725.18829	46.63249	566.96613	-94.66035	195.96048	572.12036	-64.96619	-126.85709	498.48117	769.86060	20.48965	496.44556	800.61011	
5257	52.560	-175.91554	30.41198	-75.80853	301.13419	21.31561	24.53002	-291.43719	-3.38450	503.94501	177.45842	-19.80323	603.60223	25.23359	804.16449	-725.65387	45.71007	566.89886	-94.81298	194.65576	572.07233	-65.27370	-127.46854	499.10529	769.54449	19.47524	497.34732	800.41833	
5258	52.570	-176.85132	29.96401	-75.94234	300.37067	20.96361	24.22011	-292.76788	-2.47286	503.82718	176.29628	-18.86363	603.31458	24.55193	802.49609	-726.05511	44.66603	566.74237	-95.03127	193.53021	571.83282	-65.49980	-128.64430	499.96036	769.47516	18.87048	497.91367	800.32776	
5259	52.580	-178.25325	29.91718	-76.41130	299.14124	20.73985	23.95553	-293.81628	-1.53280	503.59866	174.90280	-17.63916	603.54633	24.19207	801.31635	-726.58789	43.32583	566.53479	-95.47472	192.56578	571.68549	-66.10799	-129.40186	500.51233	769.79858	17.67237	498.75723	800.06842	
5260	52.590	-179.07742	29.73663	-76.74094	297.94070	20.77634	23.76891	-294.86545	-0.87361	503.41229	174.43082	-16.57538	603.21216	23.60378	800.03528	-726.74823	42.21329	566.33313	-95.64492	191.24117	571.38007	-66.59262	-130.60945	501.28131	769.56097	16.71889	498.93600	799.78912	
5261	52.600	-180.46933	29.45715	-76.85654	296.90314	20.65750	23.39116	-296.01340	0.04705	503.18942	172.76886	-15.86440	603.01941	22.92687	799.01062	-727.08765	41.33601	566.10004	-95.89165	188.19031	572.34021	-67.56828	-131.31364	501.85324	768.79211	15.48363	499.87692	799.29327	
5262	52.610	-181.60384	29.35949	-77.26321	295.72076	20.73343	23.09678	-297.20422	0.99931	503.10553	171.64441	-14.69468	603.01447	22.27916	798.27118	-727.46039	40.08847	565.89630	-96.43637	187.20398	572.05847	-67.80000	-132.90289	502.63425	768.48975	14.44397	500.45526	799.26337	
5263	52.620	-182.67856	29.14338	-77.63483	294.79193	20.77904	22.88850	-298.17963	1.76503	502.76312	170.80861	-13.57209	602.68414	21.62615	797.69165	-727.75940	38.94297	565.46924	-96.60698	188.77022	570.34412	-66.90290	-133.76141	503.04358	768.39923	13.17158	501.10205	798.91376	
5264	52.630	-183.44872	28.76406	-77.81440	293.53586	20.67541	22.71906	-299.56165	2.73916	502.44272	169.40359	-12.59108	602.37231	21.12853	797.24451	-728.03784	37.79710	565.34021	-96.61256	187.21504	570.47443	-67.41859	-135.43970	504.14056	767.85608	12.14509	501.95602	798.84473	
5265	52.640	-185.18591	28.86358	-78.06373	292.20990	20.61554	22.50875	-300.61813	3.52801	502.46143	168.34885	-11.65836	602.12598	20.70605	797.03082	-728.16205	36.65549	565.21338	-97.21750	186.55412	569.96191	-67.34617	-136.38533	504.66132	767.69751	11.03119	502.49542	798.74280	
5266	52.650	-186.07072	28.30502	-78.29648	291.07654	20.59276	22.03839	-301.68323	4.38127	502.13300	167.11292	-10.43850	602.31207	20.12554	796.99353	-728.20319	35.42550	565.20825	-97.36832	184.64828	570.25098	-67.92606	-137.76044	505.08597	767.72180	9.80943	502.96835	798.70526	
5267	52.660	-187.15178	28.33837	-78.61566	289.67059	20.82992	21.81615	-302.91791	5.34306	501.69638	165.68005	-9.35641	602.14386	19.30701	797.25079	-728.20551	34.27272	564.93848	-97.65462	182.84360	570.18860	-68.37500	-138.59938	505.60287	767.39734	8.22499	503.73230	798.16132	
5268	52.670	-188.15215	27.95885	-79.19724	288.86481	20.61440	21.34687	-304.10666	6.20958	501.66641	164.81705	-8.22091	601.60364	18.56482	797.63281	-728.38318	33.00852	564.87927	-97.94567	181.91394	570.15063	-68.73544	-140.24451	506.64124	767.26508	7.07267	504.43118	797.97180	
5269	52.680	-189.53787	27.79647	-79.32307	287.82446	20.70306	21.40036	-305.26852	7.00031	501.40912	163.28809	-7.10032	601.51453	17.74790	798.15826	-728.56097	31.72836	565.01141	-98.18337	179.11697	570.98523	-69.77930	-141.54332	506.96014	767.19421	5.74719	504.95355	797.75000	
5270	52.690	-190.42307	27.54813	-79.53090	286.42612	20.43694	21.05502	-306.47467	8.04577	501.07132	162.84529	-5.74031	601.16882	17.00784	798.66595	-728.57770	30.78121	564.82135	-98.43023	177.92320	571.14178	-69.96757	-142.80214	507.57419	766.99097	4.40272	505.88864	797.57208	
5271	52.700	-191.89925	27.46028	-79.95896	285.41986	20.41836	20.57082	-307.57550	8.98684	500.96811	161.14304	-4.84819	601.03308	16.26739	799.17914	-728.84076	29.27737	564.90607	-98.79827	178.62700	569.91528	-69.10283	-144.24843	508.23578	766.72888	3.41932	506.43069	797.33484	
5272	52.710	-192.56247	27.02914	-80.23254	284.77518	20.77664	20.48731	-308.79251	9.86102	500.74954	159.98219	-3.59281	601.04468	15.28723	799.82013	-728.90631	28.25944	564.55243	-98.86800	177.20721	569.98572	-69.53253	-145.22070	508.74939	766.39429	1.90235	507.22116	797.23712	
5273	52.720	-194.02701	26.91963	-80.54247	283.16833	20.44453	19.90499	-309.81036	10.89040	500.48087	159.00134	-2.64661	600.57336	14.35678	800.26520	-728.86267	26.98779	564.63861	-99.01685	176.05296	569.98413	-69.74117	-146.70169	509.37000	766.23889	1.04034	507.74261	797.16791	
5274	52.730	-195.03949	26.71697	-80.92715	282.33215	20.44890	19.77655	-310.96179	11.86038	500.05728	157.89648	-1.50177	600.32556	13.35240	800.87982	-728.86554	25.73541	564.88544	-99.51012	173.45700	571.11499	-70.50034	-147.75876	509.98325	765.79633	-0.73892	508.42603	796.63617	
5275	52.740	-196.35046	26.53691	-81.25494	280.76355	20.38401	19.40111	-312.35870	12.90927	499.91888	156.81334	-0.30854	599.95111	12.30493	801.34595	-729.02631	24.51806	565.20087	-99.58599	173.63974	570.36841	-69.94213	-149.15814	510.59357	765.62439	-1.73393	509.00488	796.47351	
5276	52.750	-197.25055	26.12776	-81.58438	279.89194	20.47507	18.98266	-313.15125	13.74836	499.81915	155.55519	0.96520	600.03278	11.36400	801.66760	-729.24481	23.34937	565.26465	-99.64766	172.18846	570.74896	-70.39527	-150.21788	511.27625	765.39899	-3.25204	509.69595	796.47168	
5277	52.760	-198.64462	26.15894	-81.98772	279.21796	20.54613	18.95300	-314.36185	14.66337	499.53772	154.77400	2.21315	599.70990	10.15631	801.92529	-729.27307	21.87630	565.51990	-100.01880	169.23671	572.09436	-71.58039	-151.38695	512.18646	765.71973	-4.18550	510.56244	796.38336	
5278	52.770	-199.78444	25.73553	-82.84566	277.87653	20.75366	18.64327	-315.64130	15.84378	499.29315	153.30367	3.01294	599.45966	8.91161	801.90118	-729.58368	20.86369	565.71600	-100.12173	167.75044	572.27911	-71.85568	-152.90425	513.12030	765.37659	-5.21174	511.21149	796.18738	
